<?xml version="1.0" encoding="utf-8"?>
<?xml-stylesheet type="text/xsl" href="rss1.xsl"?>
<rss version="2.0" xmlns:atom="http://www.w3.org/2005/Atom" xmlns:content="http://purl.org/rss/1.0/modules/content/" xmlns:dc="http://purl.org/dc/elements/1.1/" xmlns:media="http://search.yahoo.com/mrss/">
<channel>
 <title>Getty</title>
 <link>http://www.gettyimg.com/</link>
 <atom:link href="http://www.gettyimg.com/" rel="self" type="application/rss+xml" />

 
                <item>
                <title><![CDATA[【Apple Music】WEB-RiP - le Shuuk &amp; Jerome - You &amp; Me (Le Shuuk vs. Jerome) (1080p)]]></title>
                <link><![CDATA[https://sharemania.us/threads/le-shuuk-jerome-you-me-le-shuuk-vs-jerome-1080p.249227/]]></link>
                <description><![CDATA[<article>
<blockquote class="messageText SelectQuoteContainer ugc baseHtml">
<img src="https://i.postimg.cc/PqmQ91zV/le-Shuuk-Jerome-You-Me-Le-Shuuk-vs-Jerome-mp4.jpg" class="bbCodeImage LbImage" alt="[​IMG]" data-url="https://i.postimg.cc/PqmQ91zV/le-Shuuk-Jerome-You-Me-Le-Shuuk-vs-Jerome-mp4.jpg" style=""><br>
<br>
<div class="bbCodeBlock bbCodeCode">
<div class="type">Code:</div>
<pre>General
Complete name                  : G:\Новая папка\le Shuuk &amp; Jerome - You &amp; Me (Le Shuuk vs. Jerome).mp4
Format                         : MPEG-4
Format profile                 : Base Media
Codec ID                       : isom (isom/iso2/avc1/mp41)
File size                      : 232 MiB
Duration                       : 3 min 10 s
Overall bit rate               : 10.2 Mb/s
Frame rate                     : 25.000 FPS
Movie name                     : You &amp; Me (Le Shuuk vs. Jerome)
Performer                      : le Shuuk &amp; Jerome
Genre                          : Dance
ContentType                    : Music Video
Recorded date                  : 2020-04-27 07:00:00 UTC
Writing application            : Lavf56.30.100
Copyright                      : ℗ 2020 Kontor Records GmbH

Video
ID                             : 1
Format                         : AVC
Format/Info                    : Advanced Video Codec
Format profile                 : High@L4
Format settings                : CABAC / 5 Ref Frames
Format settings, CABAC         : Yes
Format settings, Reference fra : 5 frames
Format settings, Slice count   : 8 slices per frame
Codec ID                       : avc1
Codec ID/Info                  : Advanced Video Coding
Duration                       : 3 min 9 s
Bit rate                       : 9 980 kb/s
Width                          : 1 920 pixels
Height                         : 800 pixels
Display aspect ratio           : 2.40:1
Frame rate mode                : Constant
Frame rate                     : 25.000 FPS
Color space                    : YUV
Chroma subsampling             : 4:2:0
Bit depth                      : 8 bits
Scan type                      : Progressive
Bits/(Pixel*Frame)             : 0.260
Stream size                    : 226 MiB (97%)
Color range                    : Limited
Color primaries                : BT.709
Transfer characteristics       : BT.709
Matrix coefficients            : BT.709
Codec configuration box        : avcC

Audio
ID                             : 2
Format                         : AAC LC
Format/Info                    : Advanced Audio Codec Low Complexity
Codec ID                       : mp4a-40-2
Duration                       : 3 min 10 s
Duration_LastFrame             : -12 ms
Bit rate mode                  : Constant
Bit rate                       : 258 kb/s
Channel(s)                     : 2 channels
Channel layout                 : L R
Sampling rate                  : 48.0 kHz
Frame rate                     : 46.875 FPS (1024 SPF)
Compression mode               : Lossy
Stream size                    : 5.84 MiB (3%)
Default                        : Yes
Alternate group                : 1

</pre>
</div>
<div class="bbCodeBlock bbCodeVfcHH HiddenContent">
<div class="attribution type">Hidden Content:</div>
<blockquote>You must either reply or click 'Like' to see the hidden information contained here.</blockquote>
</div>
<div class="messageTextEndMarker">&nbsp;</div>
</blockquote>
</article>]]></description>
                <author><![CDATA[vitalya3]]></author>
                </item>

                
                <item>
                <title><![CDATA[【Albums (lossless)】ALAC - Ariana Grande - Positions (Deluxe Bonus Videos Edition) (2020) [Apple Lossless 24 bits/44,1 kHz]]]></title>
                <link><![CDATA[https://sharemania.us/threads/ariana-grande-positions-deluxe-bonus-videos-edition-2020-apple-lossless-24-bits-44-1-khz.249228/]]></link>
                <description><![CDATA[<article>
<blockquote class="messageText SelectQuoteContainer ugc baseHtml">
<img src="https://a5.mzstatic.com/us/r1000/0/Music116/v4/1e/db/15/1edb1555-b155-57ce-2f61-a87352c0777e/21UMGIM11941.rgb.jpg" class="bbCodeImage LbImage" alt="[​IMG]" data-url="https://a5.mzstatic.com/us/r1000/0/Music116/v4/1e/db/15/1edb1555-b155-57ce-2f61-a87352c0777e/21UMGIM11941.rgb.jpg" style=""><br>
<div style="text-align: center"><img src="https://bendodson.s3-eu-west-1.amazonaws.com/apple-music/lossless.png" class="bbCodeImage LbImage" alt="[​IMG]" data-url="https://bendodson.s3-eu-west-1.amazonaws.com/apple-music/lossless.png" style="">​</div>
<div class="ToggleTriggerAnchor bbCodeSpoilerContainer">
<button type="button" class="button bbCodeSpoilerButton ToggleTrigger Tooltip JsOnly" data-target="> .SpoilerTarget"><span>Spoiler: <span class="SpoilerTitle">MediaInfo</span></span></button>
<div class="SpoilerTarget bbCodeSpoilerText">
<div class="bbCodeBlock bbCodeCode">
<div class="type">Code:</div>
<pre>General
Format                                   : MPEG-4
Format profile                           : Apple audio with iTunes info
Codec ID                                 : M4A  (M4A /isom/iso2)
File size                                : 32.3 MiB
Duration                                 : 2 min 29 s
Overall bit rate mode                    : Variable
Overall bit rate                         : 1 805 kb/s
Album                                    : Positions (Deluxe Bonus Videos Edition)
Album/Performer                          : Ariana Grande
Part/Position                            : 1
Track name                               : just like magic
Track name/Position                      : 4
Performer                                : Ariana Grande
Composer                                 : Ariana Grande, Tommy Brown, Priscilla Renea Hamilton, Robert Shea Taylor &amp; Steven Franks
Genre                                    : Pop
Recorded date                            : 2020-10-30
Encoded date                             : 2024-04-11 01:32:42 UTC
Tagged date                              : 2024-07-08 14:12:05 UTC
Copyright                                : ℗ 2024 Republic Records, a division of UMG Recordings, Inc.
Cover                                    : Yes
Lyrics                                   : [00:07.56]Wake up in my bed / [00:09.10]I just wanna have a good day / [00:11.41]Thinking in my head / [00:12.82]Then it happens how it should, aye / [00:15.16]Twelve o' clock, I got a team meeting / [00:16.70]Then a meditation at like one thirty / [00:18.91]Then I ride to the studio / [00:20.80]Listening to some shit I wrote / [00:23.33]Good karma, my aesthetic (Aesthetic) / [00:26.01]Keep my conscience clear that's why I'm so magnetic / [00:29.69]Manifest it, I finessed it (I finessed it) / [00:33.47]Take my pen and write some love letters to heaven / [00:37.13]Just like magic, just like magic / [00:40.90]Middle finger to my thumb and then I snap it / [00:44.69]Just like magic, I'm attractive / [00:48.39]I get everything I want 'cause I attract it / [00:51.93]It's like looking at my phone / [00:54.06]But I'm tryna disconnect it / [00:56.42]Read a fucking book / [00:57.86]I be tryna stay connected / [01:00.10]Say it's tricky at the top / [01:01.44]Gotta keep a slim ego for a thick wallet / [01:03.89]Losing friends left and right / [01:05.66]But I just send them love and light / [01:08.34]Good karma, my aesthetic (My aesthetic) / [01:10.94]Keep my conscience clear that's why I'm so magnetic / [01:14.70]Manifest it, I finessed it / [01:18.44]Take my pen and write some love letters to heaven / [01:23.14]Just like magic, just like magic / [01:26.87]Middle finger to my thumb and then I snap it (Aye) / [01:30.62]Just like magic, I'm attractive / [01:34.36]I get everything I want 'cause I attract it / [01:38.56]I don't wanna waste your time on some dumb shit / [01:42.32]Password to your phone, you can miss me with that shit / [01:46.09]Redesign your brain, we gon' make some new habits / [01:50.27]Just like magic, just like magic / [01:53.10]Just like magic, just like magic / [01:56.81]Middle finger to my thumb and then I snap it / [02:00.58]Just like magic, I'm attractive / [02:04.31]I get everything I want 'cause I attract it ('Cause I attract it, yeah)

Audio
ID                                       : 2
Format                                   : ALAC
Codec ID                                 : alac
Codec ID/Info                            : Apple Lossless Audio Codec
Duration                                 : 2 min 29 s
Duration_LastFrame                       : -8 ms
Bit rate mode                            : Variable
Bit rate                                 : 1 710 kb/s
Nominal bit rate                         : 2 117 kb/s
Channel(s)                               : 2 channels
Sampling rate                            : 44.1 kHz
Bit depth                                : 24 bits
Stream size                              : 30.6 MiB (95%)
Default                                  : Yes
Alternate group                          : 1
Encoded date                             : 2024-04-11 01:32:42 UTC
Tagged date                              : 2024-07-08 14:12:05 UTC
</pre>
</div></div>
</div><b>Released:</b> Oct 30, 2020<br>
<b>Source:</b> Apple<br>
<b>File Size:</b> 1.53 GB<br>
<b>Tracklist:</b><br>
01 shut up <img src="https://i.ibb.co/CtZZ7yG/e.png" class="bbCodeImage LbImage" alt="[​IMG]" data-url="https://i.ibb.co/CtZZ7yG/e.png" style=""><br>
02 34+35 <img src="https://i.ibb.co/CtZZ7yG/e.png" class="bbCodeImage LbImage" alt="[​IMG]" data-url="https://i.ibb.co/CtZZ7yG/e.png" style=""><br>
03 motive <img src="https://i.ibb.co/CtZZ7yG/e.png" class="bbCodeImage LbImage" alt="[​IMG]" data-url="https://i.ibb.co/CtZZ7yG/e.png" style=""><br>
04 just like magic <img src="https://i.ibb.co/CtZZ7yG/e.png" class="bbCodeImage LbImage" alt="[​IMG]" data-url="https://i.ibb.co/CtZZ7yG/e.png" style=""><br>
05 off the table<br>
06 six thirty <img src="https://i.ibb.co/CtZZ7yG/e.png" class="bbCodeImage LbImage" alt="[​IMG]" data-url="https://i.ibb.co/CtZZ7yG/e.png" style=""><br>
07 safety net (feat. Ty Dolla $ign)<br>
08 my hair<br>
09 nasty <img src="https://i.ibb.co/CtZZ7yG/e.png" class="bbCodeImage LbImage" alt="[​IMG]" data-url="https://i.ibb.co/CtZZ7yG/e.png" style=""><br>
10 west side<br>
11 love language <img src="https://i.ibb.co/CtZZ7yG/e.png" class="bbCodeImage LbImage" alt="[​IMG]" data-url="https://i.ibb.co/CtZZ7yG/e.png" style=""><br>
12 positions <img src="https://i.ibb.co/CtZZ7yG/e.png" class="bbCodeImage LbImage" alt="[​IMG]" data-url="https://i.ibb.co/CtZZ7yG/e.png" style=""><br>
13 obvious <img src="https://i.ibb.co/CtZZ7yG/e.png" class="bbCodeImage LbImage" alt="[​IMG]" data-url="https://i.ibb.co/CtZZ7yG/e.png" style=""><br>
14 pov<br>
15 someone like u (interlude)<br>
16 test drive<br>
17 34+35 (feat. Doja Cat &amp; Megan Thee Stallion) [Remix] <img src="https://i.ibb.co/CtZZ7yG/e.png" class="bbCodeImage LbImage" alt="[​IMG]" data-url="https://i.ibb.co/CtZZ7yG/e.png" style=""><br>
18 worst behavior <img src="https://i.ibb.co/CtZZ7yG/e.png" class="bbCodeImage LbImage" alt="[​IMG]" data-url="https://i.ibb.co/CtZZ7yG/e.png" style=""><br>
19 main thing<br>
20 <img src="https://i.ibb.co/55vjynC/video.png" class="bbCodeImage LbImage" alt="[​IMG]" data-url="https://i.ibb.co/55vjynC/video.png" style=""> 34+35 <img src="https://i.ibb.co/CtZZ7yG/e.png" class="bbCodeImage LbImage" alt="[​IMG]" data-url="https://i.ibb.co/CtZZ7yG/e.png" style=""><br>
21 <img src="https://i.ibb.co/55vjynC/video.png" class="bbCodeImage LbImage" alt="[​IMG]" data-url="https://i.ibb.co/55vjynC/video.png" style=""> positions <img src="https://i.ibb.co/CtZZ7yG/e.png" class="bbCodeImage LbImage" alt="[​IMG]" data-url="https://i.ibb.co/CtZZ7yG/e.png" style=""><br>
22 <img src="https://i.ibb.co/55vjynC/video.png" class="bbCodeImage LbImage" alt="[​IMG]" data-url="https://i.ibb.co/55vjynC/video.png" style=""> 34+35 (feat. Doja Cat &amp; Megan Thee Stallion) [Remix] <img src="https://i.ibb.co/CtZZ7yG/e.png" class="bbCodeImage LbImage" alt="[​IMG]" data-url="https://i.ibb.co/CtZZ7yG/e.png" style=""><br>
<div class="bbCodeBlock bbCodeVfcHH HiddenContent">
<div class="attribution type">Hidden Content:</div>
<blockquote>You must reply before you can see the hidden data contained here.</blockquote>
</div>
<div class="messageTextEndMarker">&nbsp;</div>
</blockquote>
</article>]]></description>
                <author><![CDATA[itunesboy]]></author>
                </item>

                
                <item>
                <title><![CDATA[【Apple Music】WEB-RiP - Rolla Sparks - Fara Glas (feat. Oana Radu) (1080p)]]></title>
                <link><![CDATA[https://sharemania.us/threads/rolla-sparks-fara-glas-feat-oana-radu-1080p.249229/]]></link>
                <description><![CDATA[<article>
<blockquote class="messageText SelectQuoteContainer ugc baseHtml">
<img src="https://i.postimg.cc/rF46sP8D/Rolla-Sparks-Fara-Glas-feat-Oana-Radu-mp4.jpg" class="bbCodeImage LbImage" alt="[​IMG]" data-url="https://i.postimg.cc/rF46sP8D/Rolla-Sparks-Fara-Glas-feat-Oana-Radu-mp4.jpg" style=""><br>
<br>
<div class="bbCodeBlock bbCodeCode">
<div class="type">Code:</div>
<pre>General
Complete name                  : G:\Новая папка\Rolla Sparks - Fara Glas (feat. Oana Radu).mp4
Format                         : MPEG-4
Format profile                 : Base Media
Codec ID                       : isom (isom/iso2/avc1/mp41)
File size                      : 171 MiB
Duration                       : 3 min 28 s
Overall bit rate               : 6 861 kb/s
Frame rate                     : 25.000 FPS
Movie name                     : Fara Glas (feat. Oana Radu)
Performer                      : Rolla Sparks
Genre                          : Pop
ContentType                    : Music Video
Recorded date                  : 2022-01-13 08:00:00 UTC
Writing application            : Lavf56.30.100
Copyright                      : ℗ 2014 Cat Music

Video
ID                             : 1
Format                         : AVC
Format/Info                    : Advanced Video Codec
Format profile                 : High@L4
Format settings                : CABAC / 5 Ref Frames
Format settings, CABAC         : Yes
Format settings, Reference fra : 5 frames
Format settings, Slice count   : 8 slices per frame
Codec ID                       : avc1
Codec ID/Info                  : Advanced Video Coding
Duration                       : 3 min 28 s
Bit rate                       : 6 595 kb/s
Width                          : 1 920 pixels
Height                         : 816 pixels
Display aspect ratio           : 2.35:1
Frame rate mode                : Variable
Frame rate                     : 25.000 FPS
Minimum frame rate             : 25.000 FPS
Maximum frame rate             : 26.087 FPS
Color space                    : YUV
Chroma subsampling             : 4:2:0
Bit depth                      : 8 bits
Scan type                      : Progressive
Bits/(Pixel*Frame)             : 0.168
Stream size                    : 164 MiB (96%)
Color range                    : Limited
Color primaries                : BT.709
Transfer characteristics       : BT.709
Matrix coefficients            : BT.709
Codec configuration box        : avcC

Audio
ID                             : 2
Format                         : AAC LC
Format/Info                    : Advanced Audio Codec Low Complexity
Codec ID                       : mp4a-40-2
Duration                       : 3 min 28 s
Duration_LastFrame             : -17 ms
Bit rate mode                  : Constant
Bit rate                       : 265 kb/s
Channel(s)                     : 2 channels
Channel layout                 : L R
Sampling rate                  : 48.0 kHz
Frame rate                     : 46.875 FPS (1024 SPF)
Compression mode               : Lossy
Stream size                    : 6.51 MiB (4%)
Default                        : Yes
Alternate group                : 1

</pre>
</div>
<div class="bbCodeBlock bbCodeVfcHH HiddenContent">
<div class="attribution type">Hidden Content:</div>
<blockquote>You must either reply or click 'Like' to see the hidden information contained here.</blockquote>
</div>
<div class="messageTextEndMarker">&nbsp;</div>
</blockquote>
</article>]]></description>
                <author><![CDATA[vitalya3]]></author>
                </item>

                </channel></rss>